<?xml version="1.0" encoding="UTF-8" standalone="no"?>
<!-- Uploaded to: SVG Repo, www.svgrepo.com, Generator: SVG Repo Mixer Tools -->

<svg
   width="800px"
   height="800px"
   viewBox="0 0 24 24"
   fill="none"
   version="1.1"
   id="svg1"
   sodipodi:docname="copy-icon-dark.svg"
   inkscape:version="1.4.4 (dcaf3e7d9e, 2026-05-05)"
   xmlns:inkscape="http://www.inkscape.org/namespaces/inkscape"
   xmlns:sodipodi="http://sodipodi.sourceforge.net/DTD/sodipodi-0.dtd"
   xmlns="http://www.w3.org/2000/svg"
   xmlns:svg="http://www.w3.org/2000/svg">
  <defs
     id="defs1" />
  <sodipodi:namedview
     id="namedview1"
     pagecolor="#ffffff"
     bordercolor="#000000"
     borderopacity="0.25"
     inkscape:showpageshadow="2"
     inkscape:pageopacity="0.0"
     inkscape:pagecheckerboard="0"
     inkscape:deskcolor="#d1d1d1"
     inkscape:zoom="0.3596875"
     inkscape:cx="311.38141"
     inkscape:cy="879.93049"
     inkscape:window-width="2560"
     inkscape:window-height="1364"
     inkscape:window-x="0"
     inkscape:window-y="0"
     inkscape:window-maximized="1"
     inkscape:current-layer="svg1" />
  <path
     d="M5 15C4.06812 15 3.60218 15 3.23463 14.8478C2.74458 14.6448 2.35523 14.2554 2.15224 13.7654C2 13.3978 2 12.9319 2 12V5.2C2 4.0799 2 3.51984 2.21799 3.09202C2.40973 2.71569 2.71569 2.40973 3.09202 2.21799C3.51984 2 4.0799 2 5.2 2H12C12.9319 2 13.3978 2 13.7654 2.15224C14.2554 2.35523 14.6448 2.74458 14.8478 3.23463C15 3.60218 15 4.06812 15 5M12.2 22H18.8C19.9201 22 20.4802 22 20.908 21.782C21.2843 21.5903 21.5903 21.2843 21.782 20.908C22 20.4802 22 19.9201 22 18.8V12.2C22 11.0799 22 10.5198 21.782 10.092C21.5903 9.71569 21.2843 9.40973 20.908 9.21799C20.4802 9 19.9201 9 18.8 9H12.2C11.0799 9 10.5198 9 10.092 9.21799C9.71569 9.40973 9.40973 9.71569 9.21799 10.092C9 10.5198 9 11.0799 9 12.2V18.8C9 19.9201 9 20.4802 9.21799 20.908C9.40973 21.2843 9.71569 21.5903 10.092 21.782C10.5198 22 11.0799 22 12.2 22Z"
     stroke="#000000"
     stroke-width="2"
     stroke-linecap="round"
     stroke-linejoin="round"
     id="path1"
     style="stroke:#ffffff;stroke-opacity:1" />
</svg>
